<svg xmlns="http://www.w3.org/2000/svg" xmlns:xlink="http://www.w3.org/1999/xlink" width="267" zoomAndPan="magnify" viewBox="0 0 200.25 68.249996" height="91" preserveAspectRatio="xMidYMid meet" version="1.2"><defs><clipPath id="39e05f73f3"><path d="M 65.152344 18.972656 L 131.175781 18.972656 L 131.175781 51.925781 L 65.152344 51.925781 Z M 65.152344 18.972656 "/></clipPath><clipPath id="7a88318191"><path d="M 98 12.613281 L 113 12.613281 L 113 27 L 98 27 Z M 98 12.613281 "/></clipPath></defs><g id="6e984b526e"><g clip-rule="nonzero" clip-path="url(#39e05f73f3)"><path style=" stroke:none;fill-rule:nonzero;fill:#1b75bb;fill-opacity:1;" d="M 102.488281 50.445312 C 85.367188 50.445312 71.484375 43.730469 71.484375 35.449219 C 71.484375 27.167969 85.367188 20.453125 102.488281 20.453125 C 104.382812 20.453125 106.238281 20.539062 108.039062 20.695312 L 108.039062 19.535156 C 105.222656 19.171875 102.261719 18.976562 99.210938 18.976562 C 80.398438 18.976562 65.152344 26.351562 65.152344 35.449219 C 65.152344 44.546875 80.398438 51.925781 99.210938 51.925781 C 113.878906 51.925781 126.382812 47.4375 131.175781 41.148438 C 126.539062 46.605469 115.441406 50.445312 102.488281 50.445312 "/></g><path style=" stroke:none;fill-rule:nonzero;fill:#26a9e0;fill-opacity:1;" d="M 77.902344 34.625 C 77.902344 29.863281 82.542969 25.625 89.757812 22.914062 C 80.691406 25.3125 74.542969 29.96875 74.542969 35.320312 C 74.542969 43.128906 87.628906 49.457031 103.765625 49.457031 C 104.5625 49.457031 105.355469 49.441406 106.136719 49.410156 C 90.335938 48.8125 77.902344 42.421875 77.902344 34.625 "/><g clip-rule="nonzero" clip-path="url(#7a88318191)"><path style=" stroke:none;fill-rule:nonzero;fill:#1b75bb;fill-opacity:1;" d="M 103.0625 26.976562 L 104.191406 26.976562 L 105.960938 24.273438 L 106.550781 24.273438 C 106.667969 24.273438 106.761719 24.179688 106.761719 24.0625 C 106.761719 23.945312 106.667969 23.851562 106.550781 23.851562 L 106.238281 23.851562 L 106.886719 22.859375 L 107.964844 22.859375 C 108.082031 22.859375 108.175781 22.765625 108.175781 22.648438 C 108.175781 22.53125 108.082031 22.4375 107.964844 22.4375 L 107.164062 22.4375 L 108.164062 20.90625 L 108.699219 20.90625 C 110 20.90625 111.269531 20.519531 112.347656 19.796875 C 111.269531 19.074219 110 18.6875 108.699219 18.6875 L 108.164062 18.6875 L 107.164062 17.160156 L 107.964844 17.160156 C 108.082031 17.160156 108.175781 17.0625 108.175781 16.945312 C 108.175781 16.832031 108.082031 16.734375 107.964844 16.734375 L 106.886719 16.734375 L 106.238281 15.742188 L 106.550781 15.742188 C 106.667969 15.742188 106.761719 15.648438 106.761719 15.53125 C 106.761719 15.414062 106.667969 15.320312 106.550781 15.320312 L 105.960938 15.320312 L 104.191406 12.621094 L 103.0625 12.621094 L 105.269531 18.714844 L 101.640625 18.875 L 99.929688 16.839844 L 99.246094 16.839844 L 100.0625 19.164062 L 98.695312 19.164062 L 98.695312 20.429688 L 100.0625 20.429688 L 99.246094 22.753906 L 99.929688 22.753906 L 101.640625 20.722656 L 105.269531 20.878906 L 103.0625 26.976562 "/></g><g style="fill:#000000;fill-opacity:1;"><g transform="translate(84.03935, 36.976828)"><path style="stroke:none" d="M 2.234375 0 L 0.921875 0 C 0.804688 0 0.722656 -0.0234375 0.671875 -0.078125 C 0.628906 -0.128906 0.609375 -0.207031 0.609375 -0.3125 L 0.609375 -6 C 0.609375 -6.113281 0.628906 -6.195312 0.671875 -6.25 C 0.722656 -6.300781 0.804688 -6.328125 0.921875 -6.328125 L 1.828125 -6.328125 C 1.941406 -6.328125 2.035156 -6.304688 2.109375 -6.265625 C 2.191406 -6.234375 2.273438 -6.171875 2.359375 -6.078125 L 4.0625 -4.140625 L 4.0625 -6 C 4.0625 -6.113281 4.082031 -6.195312 4.125 -6.25 C 4.175781 -6.300781 4.257812 -6.328125 4.375 -6.328125 L 5.6875 -6.328125 C 5.800781 -6.328125 5.878906 -6.300781 5.921875 -6.25 C 5.972656 -6.195312 6 -6.113281 6 -6 L 6 -0.3125 C 6 -0.207031 5.972656 -0.128906 5.921875 -0.078125 C 5.878906 -0.0234375 5.800781 0 5.6875 0 L 4.375 0 C 4.257812 0 4.175781 -0.0234375 4.125 -0.078125 C 4.082031 -0.128906 4.0625 -0.207031 4.0625 -0.3125 L 4.0625 -1.390625 L 2.5625 -3.21875 L 2.5625 -0.3125 C 2.5625 -0.207031 2.535156 -0.128906 2.484375 -0.078125 C 2.429688 -0.0234375 2.347656 0 2.234375 0 Z M 2.234375 0 "/></g></g><g style="fill:#000000;fill-opacity:1;"><g transform="translate(90.653914, 36.976828)"><path style="stroke:none" d="M 3.875 0 L 0.921875 0 C 0.804688 0 0.722656 -0.0234375 0.671875 -0.078125 C 0.628906 -0.128906 0.609375 -0.207031 0.609375 -0.3125 L 0.609375 -6 C 0.609375 -6.113281 0.628906 -6.195312 0.671875 -6.25 C 0.722656 -6.300781 0.804688 -6.328125 0.921875 -6.328125 L 3.875 -6.328125 C 4.613281 -6.328125 5.160156 -6.175781 5.515625 -5.875 C 5.867188 -5.582031 6.046875 -5.132812 6.046875 -4.53125 L 6.046875 -1.796875 C 6.046875 -1.179688 5.867188 -0.726562 5.515625 -0.4375 C 5.160156 -0.144531 4.613281 0 3.875 0 Z M 2.59375 -4.640625 L 2.59375 -1.65625 L 3.640625 -1.65625 C 3.785156 -1.65625 3.890625 -1.691406 3.953125 -1.765625 C 4.023438 -1.835938 4.0625 -1.945312 4.0625 -2.09375 L 4.0625 -4.21875 C 4.0625 -4.363281 4.023438 -4.46875 3.953125 -4.53125 C 3.890625 -4.601562 3.785156 -4.640625 3.640625 -4.640625 Z M 2.59375 -4.640625 "/></g></g><g style="fill:#000000;fill-opacity:1;"><g transform="translate(97.206988, 36.976828)"><path style="stroke:none" d=""/></g></g><g style="fill:#000000;fill-opacity:1;"><g transform="translate(99.095584, 36.976828)"><path style="stroke:none" d="M 3.59375 0 L 2.171875 0 C 2.054688 0 1.972656 -0.0234375 1.921875 -0.078125 C 1.878906 -0.128906 1.859375 -0.207031 1.859375 -0.3125 L 1.859375 -4.625 L 0.5625 -4.625 C 0.445312 -4.625 0.363281 -4.648438 0.3125 -4.703125 C 0.269531 -4.753906 0.25 -4.832031 0.25 -4.9375 L 0.25 -6 C 0.25 -6.113281 0.269531 -6.195312 0.3125 -6.25 C 0.363281 -6.300781 0.445312 -6.328125 0.5625 -6.328125 L 5.203125 -6.328125 C 5.304688 -6.328125 5.382812 -6.300781 5.4375 -6.25 C 5.488281 -6.195312 5.515625 -6.113281 5.515625 -6 L 5.515625 -4.9375 C 5.515625 -4.832031 5.488281 -4.753906 5.4375 -4.703125 C 5.382812 -4.648438 5.304688 -4.625 5.203125 -4.625 L 3.90625 -4.625 L 3.90625 -0.3125 C 3.90625 -0.207031 3.878906 -0.128906 3.828125 -0.078125 C 3.785156 -0.0234375 3.707031 0 3.59375 0 Z M 3.59375 0 "/></g></g><g style="fill:#000000;fill-opacity:1;"><g transform="translate(104.858082, 36.976828)"><path style="stroke:none" d="M 2.59375 -4.734375 L 2.59375 -3.625 L 3.25 -3.625 C 3.40625 -3.625 3.507812 -3.660156 3.5625 -3.734375 C 3.613281 -3.816406 3.640625 -3.914062 3.640625 -4.03125 L 3.640625 -4.328125 C 3.640625 -4.441406 3.613281 -4.535156 3.5625 -4.609375 C 3.507812 -4.691406 3.40625 -4.734375 3.25 -4.734375 Z M 2.28125 0 L 0.921875 0 C 0.804688 0 0.722656 -0.0234375 0.671875 -0.078125 C 0.628906 -0.128906 0.609375 -0.207031 0.609375 -0.3125 L 0.609375 -6 C 0.609375 -6.113281 0.628906 -6.195312 0.671875 -6.25 C 0.722656 -6.300781 0.804688 -6.328125 0.921875 -6.328125 L 3.84375 -6.328125 C 4.5 -6.328125 4.953125 -6.1875 5.203125 -5.90625 C 5.453125 -5.632812 5.578125 -5.285156 5.578125 -4.859375 L 5.578125 -4.453125 C 5.578125 -4.203125 5.539062 -3.988281 5.46875 -3.8125 C 5.394531 -3.644531 5.265625 -3.523438 5.078125 -3.453125 C 5.398438 -3.410156 5.65625 -3.28125 5.84375 -3.0625 C 6.039062 -2.84375 6.140625 -2.546875 6.140625 -2.171875 L 6.140625 -0.3125 C 6.140625 -0.207031 6.113281 -0.128906 6.0625 -0.078125 C 6.019531 -0.0234375 5.941406 0 5.828125 0 L 4.46875 0 C 4.351562 0 4.269531 -0.0234375 4.21875 -0.078125 C 4.175781 -0.128906 4.15625 -0.207031 4.15625 -0.3125 L 4.15625 -1.65625 C 4.15625 -1.789062 4.128906 -1.882812 4.078125 -1.9375 C 4.023438 -2 3.9375 -2.03125 3.8125 -2.03125 L 2.59375 -2.03125 L 2.59375 -0.3125 C 2.59375 -0.207031 2.566406 -0.128906 2.515625 -0.078125 C 2.460938 -0.0234375 2.382812 0 2.28125 0 Z M 2.28125 0 "/></g></g><g style="fill:#000000;fill-opacity:1;"><g transform="translate(111.384809, 36.976828)"><path style="stroke:none" d="M 2.890625 -4.484375 L 2.484375 -3.140625 L 3.859375 -3.140625 L 3.453125 -4.484375 C 3.429688 -4.535156 3.40625 -4.570312 3.375 -4.59375 C 3.351562 -4.613281 3.320312 -4.625 3.28125 -4.625 L 3.0625 -4.625 C 3.03125 -4.625 3 -4.613281 2.96875 -4.59375 C 2.945312 -4.570312 2.921875 -4.535156 2.890625 -4.484375 Z M 2.390625 -0.3125 C 2.390625 -0.207031 2.363281 -0.128906 2.3125 -0.078125 C 2.269531 -0.0234375 2.191406 0 2.078125 0 L 0.796875 0 C 0.679688 0 0.597656 -0.0234375 0.546875 -0.078125 C 0.492188 -0.128906 0.46875 -0.207031 0.46875 -0.3125 L 0.46875 -2.640625 C 0.46875 -2.804688 0.492188 -3.003906 0.546875 -3.234375 C 0.609375 -3.460938 0.695312 -3.734375 0.8125 -4.046875 L 1.578125 -6.03125 C 1.617188 -6.132812 1.675781 -6.207031 1.75 -6.25 C 1.820312 -6.300781 1.914062 -6.328125 2.03125 -6.328125 L 4.390625 -6.328125 C 4.503906 -6.328125 4.597656 -6.300781 4.671875 -6.25 C 4.742188 -6.207031 4.796875 -6.132812 4.828125 -6.03125 L 5.59375 -4.046875 C 5.707031 -3.734375 5.789062 -3.460938 5.84375 -3.234375 C 5.90625 -3.003906 5.9375 -2.804688 5.9375 -2.640625 L 5.9375 -0.3125 C 5.9375 -0.207031 5.910156 -0.128906 5.859375 -0.078125 C 5.804688 -0.0234375 5.726562 0 5.625 0 L 4.296875 0 C 4.179688 0 4.09375 -0.0234375 4.03125 -0.078125 C 3.976562 -0.128906 3.953125 -0.207031 3.953125 -0.3125 L 3.953125 -1.546875 L 2.390625 -1.546875 Z M 2.390625 -0.3125 "/></g></g><g style="fill:#000000;fill-opacity:1;"><g transform="translate(117.709469, 36.976828)"><path style="stroke:none" d="M 4.34375 0 L 2.0625 0 C 1.945312 0 1.851562 -0.0195312 1.78125 -0.0625 C 1.707031 -0.101562 1.648438 -0.179688 1.609375 -0.296875 L 0.75 -2.4375 C 0.695312 -2.570312 0.65625 -2.6875 0.625 -2.78125 C 0.59375 -2.875 0.5625 -2.960938 0.53125 -3.046875 C 0.507812 -3.140625 0.492188 -3.234375 0.484375 -3.328125 C 0.472656 -3.429688 0.46875 -3.550781 0.46875 -3.6875 L 0.46875 -6 C 0.46875 -6.113281 0.492188 -6.195312 0.546875 -6.25 C 0.597656 -6.300781 0.679688 -6.328125 0.796875 -6.328125 L 2.1875 -6.328125 C 2.300781 -6.328125 2.382812 -6.300781 2.4375 -6.25 C 2.5 -6.195312 2.53125 -6.113281 2.53125 -6 L 2.53125 -3.578125 C 2.53125 -3.523438 2.535156 -3.46875 2.546875 -3.40625 C 2.554688 -3.34375 2.570312 -3.28125 2.59375 -3.21875 L 3.015625 -2 C 3.023438 -1.9375 3.039062 -1.894531 3.0625 -1.875 C 3.09375 -1.851562 3.128906 -1.84375 3.171875 -1.84375 L 3.28125 -1.84375 C 3.320312 -1.84375 3.351562 -1.851562 3.375 -1.875 C 3.40625 -1.894531 3.425781 -1.9375 3.4375 -2 L 3.859375 -3.234375 C 3.878906 -3.296875 3.894531 -3.351562 3.90625 -3.40625 C 3.914062 -3.46875 3.921875 -3.53125 3.921875 -3.59375 L 3.921875 -6 C 3.921875 -6.113281 3.945312 -6.195312 4 -6.25 C 4.050781 -6.300781 4.128906 -6.328125 4.234375 -6.328125 L 5.625 -6.328125 C 5.726562 -6.328125 5.804688 -6.300781 5.859375 -6.25 C 5.910156 -6.195312 5.9375 -6.113281 5.9375 -6 L 5.9375 -3.6875 C 5.9375 -3.550781 5.929688 -3.429688 5.921875 -3.328125 C 5.910156 -3.234375 5.894531 -3.140625 5.875 -3.046875 C 5.851562 -2.960938 5.820312 -2.875 5.78125 -2.78125 C 5.75 -2.6875 5.707031 -2.570312 5.65625 -2.4375 L 4.796875 -0.296875 C 4.753906 -0.179688 4.695312 -0.101562 4.625 -0.0625 C 4.550781 -0.0195312 4.457031 0 4.34375 0 Z M 4.34375 0 "/></g></g><g style="fill:#000000;fill-opacity:1;"><g transform="translate(124.121999, 36.976828)"><path style="stroke:none" d="M 5 0 L 0.921875 0 C 0.804688 0 0.722656 -0.0234375 0.671875 -0.078125 C 0.628906 -0.128906 0.609375 -0.207031 0.609375 -0.3125 L 0.609375 -6 C 0.609375 -6.113281 0.628906 -6.195312 0.671875 -6.25 C 0.722656 -6.300781 0.804688 -6.328125 0.921875 -6.328125 L 5 -6.328125 C 5.101562 -6.328125 5.179688 -6.300781 5.234375 -6.25 C 5.285156 -6.195312 5.3125 -6.113281 5.3125 -6 L 5.3125 -4.984375 C 5.3125 -4.867188 5.285156 -4.785156 5.234375 -4.734375 C 5.179688 -4.679688 5.101562 -4.65625 5 -4.65625 L 2.578125 -4.65625 L 2.578125 -3.984375 L 4.28125 -3.984375 C 4.394531 -3.984375 4.472656 -3.957031 4.515625 -3.90625 C 4.566406 -3.863281 4.59375 -3.785156 4.59375 -3.671875 L 4.59375 -2.734375 C 4.59375 -2.617188 4.566406 -2.535156 4.515625 -2.484375 C 4.472656 -2.441406 4.394531 -2.421875 4.28125 -2.421875 L 2.578125 -2.421875 L 2.578125 -1.65625 L 5 -1.65625 C 5.101562 -1.65625 5.179688 -1.628906 5.234375 -1.578125 C 5.285156 -1.535156 5.3125 -1.457031 5.3125 -1.34375 L 5.3125 -0.3125 C 5.3125 -0.207031 5.285156 -0.128906 5.234375 -0.078125 C 5.179688 -0.0234375 5.101562 0 5 0 Z M 5 0 "/></g></g><g style="fill:#000000;fill-opacity:1;"><g transform="translate(129.866925, 36.976828)"><path style="stroke:none" d="M 5.390625 0 L 0.921875 0 C 0.804688 0 0.722656 -0.0234375 0.671875 -0.078125 C 0.628906 -0.128906 0.609375 -0.207031 0.609375 -0.3125 L 0.609375 -6 C 0.609375 -6.113281 0.628906 -6.195312 0.671875 -6.25 C 0.722656 -6.300781 0.804688 -6.328125 0.921875 -6.328125 L 2.28125 -6.328125 C 2.394531 -6.328125 2.472656 -6.300781 2.515625 -6.25 C 2.566406 -6.195312 2.59375 -6.113281 2.59375 -6 L 2.59375 -1.65625 L 3.796875 -1.65625 L 3.796875 -3.078125 C 3.796875 -3.191406 3.820312 -3.269531 3.875 -3.3125 C 3.925781 -3.363281 4.007812 -3.390625 4.125 -3.390625 L 5.390625 -3.390625 C 5.503906 -3.390625 5.582031 -3.363281 5.625 -3.3125 C 5.675781 -3.269531 5.703125 -3.191406 5.703125 -3.078125 L 5.703125 -0.3125 C 5.703125 -0.207031 5.675781 -0.128906 5.625 -0.078125 C 5.582031 -0.0234375 5.503906 0 5.390625 0 Z M 5.390625 0 "/></g></g><g style="fill:#000000;fill-opacity:1;"><g transform="translate(95.634391, 42.281544)"><path style="stroke:none" d="M 0.09375 0 L 0.09375 -0.03125 L 0.125 -0.03125 C 0.257812 -0.03125 0.328125 -0.0859375 0.328125 -0.203125 L 0.328125 -1.546875 C 0.328125 -1.648438 0.257812 -1.703125 0.125 -1.703125 L 0.09375 -1.703125 L 0.09375 -1.734375 L 1.3125 -1.734375 L 1.328125 -1.3125 L 1.296875 -1.3125 L 1.296875 -1.390625 C 1.285156 -1.503906 1.253906 -1.582031 1.203125 -1.625 C 1.160156 -1.675781 1.078125 -1.703125 0.953125 -1.703125 L 0.5625 -1.703125 L 0.5625 -0.921875 L 1.171875 -0.921875 L 1.171875 -0.890625 L 0.5625 -0.890625 L 0.5625 -0.03125 L 1.015625 -0.03125 C 1.097656 -0.03125 1.164062 -0.0351562 1.21875 -0.046875 C 1.269531 -0.0664062 1.304688 -0.0976562 1.328125 -0.140625 C 1.359375 -0.191406 1.375 -0.257812 1.375 -0.34375 L 1.390625 -0.421875 L 1.40625 -0.421875 L 1.390625 0 Z M 0.09375 0 "/></g></g><g style="fill:#000000;fill-opacity:1;"><g transform="translate(97.146641, 42.281544)"><path style="stroke:none" d="M 0.015625 0 L 0.015625 -0.03125 L 0.0625 -0.03125 C 0.113281 -0.03125 0.15625 -0.0390625 0.1875 -0.0625 C 0.21875 -0.0820312 0.257812 -0.117188 0.3125 -0.171875 L 0.625 -0.625 L 0.28125 -1.140625 C 0.25 -1.191406 0.21875 -1.226562 0.1875 -1.25 C 0.164062 -1.269531 0.132812 -1.28125 0.09375 -1.28125 L 0.0625 -1.28125 L 0.0625 -1.296875 L 0.671875 -1.296875 L 0.671875 -1.28125 L 0.65625 -1.28125 C 0.5625 -1.28125 0.515625 -1.257812 0.515625 -1.21875 C 0.515625 -1.195312 0.519531 -1.175781 0.53125 -1.15625 C 0.539062 -1.144531 0.554688 -1.125 0.578125 -1.09375 L 0.78125 -0.78125 L 0.96875 -1.0625 C 1.019531 -1.125 1.046875 -1.171875 1.046875 -1.203125 C 1.046875 -1.253906 0.992188 -1.28125 0.890625 -1.28125 L 0.796875 -1.28125 L 0.796875 -1.296875 L 1.328125 -1.296875 L 1.328125 -1.28125 L 1.28125 -1.28125 C 1.238281 -1.28125 1.195312 -1.265625 1.15625 -1.234375 C 1.125 -1.210938 1.085938 -1.175781 1.046875 -1.125 L 0.796875 -0.765625 L 1.1875 -0.15625 C 1.21875 -0.101562 1.242188 -0.0664062 1.265625 -0.046875 C 1.296875 -0.0351562 1.332031 -0.03125 1.375 -0.03125 L 1.390625 -0.03125 L 1.390625 0 L 0.765625 0 L 0.765625 -0.03125 L 0.78125 -0.03125 C 0.84375 -0.03125 0.882812 -0.03125 0.90625 -0.03125 C 0.925781 -0.0390625 0.9375 -0.0625 0.9375 -0.09375 C 0.9375 -0.101562 0.925781 -0.125 0.90625 -0.15625 C 0.894531 -0.1875 0.878906 -0.222656 0.859375 -0.265625 L 0.640625 -0.59375 L 0.390625 -0.234375 C 0.335938 -0.171875 0.3125 -0.125 0.3125 -0.09375 C 0.3125 -0.0507812 0.363281 -0.03125 0.46875 -0.03125 L 0.59375 -0.03125 L 0.59375 0 Z M 0.015625 0 "/></g></g><g style="fill:#000000;fill-opacity:1;"><g transform="translate(98.549656, 42.281544)"><path style="stroke:none" d="M 0.046875 0.578125 L 0.046875 0.5625 L 0.0625 0.5625 C 0.132812 0.5625 0.1875 0.546875 0.21875 0.515625 C 0.25 0.484375 0.265625 0.4375 0.265625 0.375 L 0.265625 -1.078125 C 0.265625 -1.148438 0.25 -1.203125 0.21875 -1.234375 C 0.1875 -1.265625 0.132812 -1.28125 0.0625 -1.28125 L 0.03125 -1.28125 L 0.03125 -1.296875 L 0.484375 -1.296875 L 0.484375 -0.96875 C 0.503906 -1.082031 0.546875 -1.171875 0.609375 -1.234375 C 0.671875 -1.296875 0.757812 -1.328125 0.875 -1.328125 C 1.195312 -1.328125 1.359375 -1.101562 1.359375 -0.65625 C 1.359375 -0.425781 1.316406 -0.253906 1.234375 -0.140625 C 1.148438 -0.0234375 1.023438 0.03125 0.859375 0.03125 C 0.753906 0.03125 0.671875 0 0.609375 -0.0625 C 0.546875 -0.125 0.503906 -0.21875 0.484375 -0.34375 C 0.484375 -0.300781 0.484375 -0.257812 0.484375 -0.21875 C 0.484375 -0.175781 0.484375 -0.132812 0.484375 -0.09375 L 0.484375 0.359375 C 0.484375 0.429688 0.5 0.484375 0.53125 0.515625 C 0.5625 0.546875 0.613281 0.5625 0.6875 0.5625 L 0.6875 0.578125 Z M 0.828125 -0.015625 C 0.929688 -0.015625 1.003906 -0.0625 1.046875 -0.15625 C 1.097656 -0.257812 1.125 -0.425781 1.125 -0.65625 C 1.125 -0.882812 1.097656 -1.046875 1.046875 -1.140625 C 1.003906 -1.234375 0.929688 -1.28125 0.828125 -1.28125 C 0.703125 -1.28125 0.613281 -1.226562 0.5625 -1.125 C 0.507812 -1.019531 0.484375 -0.863281 0.484375 -0.65625 C 0.484375 -0.4375 0.507812 -0.273438 0.5625 -0.171875 C 0.625 -0.0664062 0.710938 -0.015625 0.828125 -0.015625 Z M 0.828125 -0.015625 "/></g></g><g style="fill:#000000;fill-opacity:1;"><g transform="translate(100.040058, 42.281544)"><path style="stroke:none" d="M 0.03125 0 L 0.03125 -0.03125 L 0.0625 -0.03125 C 0.132812 -0.03125 0.1875 -0.0390625 0.21875 -0.0625 C 0.25 -0.09375 0.265625 -0.140625 0.265625 -0.203125 L 0.265625 -1.625 C 0.265625 -1.695312 0.25 -1.742188 0.21875 -1.765625 C 0.1875 -1.796875 0.132812 -1.8125 0.0625 -1.8125 L 0.03125 -1.8125 L 0.03125 -1.84375 L 0.484375 -1.84375 L 0.484375 -0.21875 C 0.484375 -0.144531 0.5 -0.09375 0.53125 -0.0625 C 0.5625 -0.0390625 0.613281 -0.03125 0.6875 -0.03125 L 0.71875 -0.03125 L 0.71875 0 Z M 0.03125 0 "/></g></g><g style="fill:#000000;fill-opacity:1;"><g transform="translate(100.792541, 42.281544)"><path style="stroke:none" d="M 0.6875 0.03125 C 0.519531 0.03125 0.382812 -0.0234375 0.28125 -0.140625 C 0.1875 -0.253906 0.140625 -0.425781 0.140625 -0.65625 C 0.140625 -0.875 0.1875 -1.039062 0.28125 -1.15625 C 0.375 -1.269531 0.515625 -1.328125 0.703125 -1.328125 C 0.878906 -1.328125 1.015625 -1.269531 1.109375 -1.15625 C 1.210938 -1.039062 1.265625 -0.875 1.265625 -0.65625 C 1.265625 -0.425781 1.210938 -0.253906 1.109375 -0.140625 C 1.015625 -0.0234375 0.875 0.03125 0.6875 0.03125 Z M 0.703125 0 C 0.816406 0 0.898438 -0.046875 0.953125 -0.140625 C 1.003906 -0.242188 1.03125 -0.414062 1.03125 -0.65625 C 1.03125 -0.882812 1.003906 -1.046875 0.953125 -1.140625 C 0.898438 -1.242188 0.816406 -1.296875 0.703125 -1.296875 C 0.578125 -1.296875 0.488281 -1.242188 0.4375 -1.140625 C 0.394531 -1.046875 0.375 -0.882812 0.375 -0.65625 C 0.375 -0.414062 0.394531 -0.242188 0.4375 -0.140625 C 0.488281 -0.046875 0.578125 0 0.703125 0 Z M 0.703125 0 "/></g></g><g style="fill:#000000;fill-opacity:1;"><g transform="translate(102.19313, 42.281544)"><path style="stroke:none" d="M 0.0625 0 L 0.0625 -0.03125 L 0.09375 -0.03125 C 0.15625 -0.03125 0.203125 -0.0390625 0.234375 -0.0625 C 0.265625 -0.09375 0.28125 -0.140625 0.28125 -0.203125 L 0.28125 -1.078125 C 0.28125 -1.148438 0.265625 -1.203125 0.234375 -1.234375 C 0.203125 -1.265625 0.15625 -1.28125 0.09375 -1.28125 L 0.078125 -1.28125 L 0.078125 -1.296875 L 0.515625 -1.296875 L 0.515625 -1.0625 C 0.523438 -1.101562 0.539062 -1.140625 0.5625 -1.171875 C 0.582031 -1.210938 0.613281 -1.25 0.65625 -1.28125 C 0.707031 -1.3125 0.773438 -1.328125 0.859375 -1.328125 C 0.929688 -1.328125 0.988281 -1.3125 1.03125 -1.28125 C 1.082031 -1.25 1.109375 -1.203125 1.109375 -1.140625 C 1.109375 -1.097656 1.085938 -1.054688 1.046875 -1.015625 C 1.015625 -0.984375 0.957031 -0.96875 0.875 -0.96875 C 0.875 -1.070312 0.859375 -1.140625 0.828125 -1.171875 C 0.796875 -1.210938 0.757812 -1.234375 0.71875 -1.234375 C 0.664062 -1.234375 0.625 -1.21875 0.59375 -1.1875 C 0.570312 -1.15625 0.550781 -1.113281 0.53125 -1.0625 C 0.519531 -1.007812 0.515625 -0.953125 0.515625 -0.890625 C 0.515625 -0.835938 0.515625 -0.789062 0.515625 -0.75 L 0.515625 -0.21875 C 0.515625 -0.144531 0.53125 -0.09375 0.5625 -0.0625 C 0.59375 -0.0390625 0.644531 -0.03125 0.71875 -0.03125 L 0.75 -0.03125 L 0.75 0 Z M 0.0625 0 "/></g></g><g style="fill:#000000;fill-opacity:1;"><g transform="translate(103.336417, 42.281544)"><path style="stroke:none" d="M 0.703125 0.03125 C 0.523438 0.03125 0.382812 -0.0234375 0.28125 -0.140625 C 0.1875 -0.265625 0.140625 -0.429688 0.140625 -0.640625 C 0.140625 -0.867188 0.179688 -1.039062 0.265625 -1.15625 C 0.359375 -1.269531 0.492188 -1.328125 0.671875 -1.328125 C 0.828125 -1.328125 0.945312 -1.273438 1.03125 -1.171875 C 1.125 -1.078125 1.171875 -0.9375 1.171875 -0.75 L 1.171875 -0.6875 L 0.375 -0.6875 C 0.375 -0.4375 0.398438 -0.257812 0.453125 -0.15625 C 0.503906 -0.0507812 0.59375 0 0.71875 0 C 0.800781 0 0.875 -0.0234375 0.9375 -0.078125 C 1 -0.128906 1.039062 -0.203125 1.0625 -0.296875 C 1.082031 -0.296875 1.097656 -0.285156 1.109375 -0.265625 C 1.117188 -0.253906 1.125 -0.238281 1.125 -0.21875 C 1.125 -0.1875 1.109375 -0.148438 1.078125 -0.109375 C 1.046875 -0.078125 1 -0.046875 0.9375 -0.015625 C 0.875 0.015625 0.796875 0.03125 0.703125 0.03125 Z M 0.375 -0.703125 L 0.9375 -0.703125 C 0.9375 -0.921875 0.914062 -1.070312 0.875 -1.15625 C 0.832031 -1.25 0.765625 -1.296875 0.671875 -1.296875 C 0.566406 -1.296875 0.488281 -1.25 0.4375 -1.15625 C 0.394531 -1.070312 0.375 -0.921875 0.375 -0.703125 Z M 0.375 -0.703125 "/></g></g><g style="fill:#000000;fill-opacity:1;"><g transform="translate(104.635056, 42.281544)"><path style="stroke:none" d=""/></g></g><g style="fill:#000000;fill-opacity:1;"><g transform="translate(105.181212, 42.281544)"><path style="stroke:none" d="M 0.390625 -1.53125 C 0.359375 -1.53125 0.332031 -1.539062 0.3125 -1.5625 C 0.289062 -1.582031 0.28125 -1.617188 0.28125 -1.671875 C 0.28125 -1.722656 0.289062 -1.753906 0.3125 -1.765625 C 0.332031 -1.785156 0.359375 -1.796875 0.390625 -1.796875 C 0.421875 -1.796875 0.445312 -1.785156 0.46875 -1.765625 C 0.488281 -1.753906 0.5 -1.722656 0.5 -1.671875 C 0.5 -1.617188 0.488281 -1.582031 0.46875 -1.5625 C 0.445312 -1.539062 0.421875 -1.53125 0.390625 -1.53125 Z M 0.0625 0 L 0.0625 -0.03125 L 0.09375 -0.03125 C 0.15625 -0.03125 0.203125 -0.0390625 0.234375 -0.0625 C 0.265625 -0.09375 0.28125 -0.140625 0.28125 -0.203125 L 0.28125 -1.078125 C 0.28125 -1.148438 0.265625 -1.203125 0.234375 -1.234375 C 0.203125 -1.265625 0.15625 -1.28125 0.09375 -1.28125 L 0.078125 -1.28125 L 0.078125 -1.296875 L 0.515625 -1.296875 L 0.515625 -0.21875 C 0.515625 -0.144531 0.53125 -0.09375 0.5625 -0.0625 C 0.59375 -0.0390625 0.644531 -0.03125 0.71875 -0.03125 L 0.75 -0.03125 L 0.75 0 Z M 0.0625 0 "/></g></g><g style="fill:#000000;fill-opacity:1;"><g transform="translate(105.95797, 42.281544)"><path style="stroke:none" d="M 0.0625 0 L 0.0625 -0.03125 L 0.09375 -0.03125 C 0.164062 -0.03125 0.210938 -0.046875 0.234375 -0.078125 C 0.265625 -0.109375 0.28125 -0.164062 0.28125 -0.25 L 0.28125 -1.0625 C 0.28125 -1.132812 0.265625 -1.1875 0.234375 -1.21875 C 0.210938 -1.257812 0.164062 -1.28125 0.09375 -1.28125 L 0.078125 -1.28125 L 0.078125 -1.296875 L 0.515625 -1.296875 L 0.515625 -1.078125 C 0.535156 -1.148438 0.566406 -1.203125 0.609375 -1.234375 C 0.648438 -1.273438 0.691406 -1.300781 0.734375 -1.3125 C 0.785156 -1.320312 0.832031 -1.328125 0.875 -1.328125 C 1.019531 -1.328125 1.125 -1.285156 1.1875 -1.203125 C 1.257812 -1.128906 1.296875 -1.007812 1.296875 -0.84375 L 1.296875 -0.25 C 1.296875 -0.164062 1.304688 -0.109375 1.328125 -0.078125 C 1.359375 -0.046875 1.410156 -0.03125 1.484375 -0.03125 L 1.5 -0.03125 L 1.5 0 L 1.078125 0 L 1.078125 -0.9375 C 1.078125 -1.039062 1.054688 -1.125 1.015625 -1.1875 C 0.972656 -1.25 0.90625 -1.28125 0.8125 -1.28125 C 0.738281 -1.28125 0.675781 -1.257812 0.625 -1.21875 C 0.582031 -1.1875 0.550781 -1.132812 0.53125 -1.0625 C 0.519531 -1 0.515625 -0.9375 0.515625 -0.875 L 0.515625 -0.25 C 0.515625 -0.164062 0.523438 -0.109375 0.546875 -0.078125 C 0.578125 -0.046875 0.628906 -0.03125 0.703125 -0.03125 L 0.71875 -0.03125 L 0.71875 0 Z M 0.0625 0 "/></g></g><g style="fill:#000000;fill-opacity:1;"><g transform="translate(107.523621, 42.281544)"><path style="stroke:none" d=""/></g></g><g style="fill:#000000;fill-opacity:1;"><g transform="translate(108.069777, 42.281544)"><path style="stroke:none" d="M 0.09375 0.578125 L 0.09375 0.5625 C 0.207031 0.5625 0.296875 0.550781 0.359375 0.53125 C 0.429688 0.507812 0.488281 0.476562 0.53125 0.4375 C 0.570312 0.40625 0.609375 0.359375 0.640625 0.296875 C 0.671875 0.242188 0.695312 0.179688 0.71875 0.109375 L 0.203125 -1.140625 C 0.179688 -1.191406 0.160156 -1.226562 0.140625 -1.25 C 0.117188 -1.269531 0.09375 -1.28125 0.0625 -1.28125 L 0.015625 -1.28125 L 0.015625 -1.296875 L 0.59375 -1.296875 L 0.59375 -1.28125 L 0.578125 -1.28125 C 0.535156 -1.28125 0.5 -1.269531 0.46875 -1.25 C 0.445312 -1.238281 0.4375 -1.210938 0.4375 -1.171875 C 0.4375 -1.148438 0.445312 -1.113281 0.46875 -1.0625 L 0.671875 -0.5625 C 0.691406 -0.5 0.71875 -0.429688 0.75 -0.359375 C 0.78125 -0.285156 0.800781 -0.222656 0.8125 -0.171875 C 0.832031 -0.234375 0.851562 -0.289062 0.875 -0.34375 C 0.894531 -0.40625 0.910156 -0.457031 0.921875 -0.5 L 1.109375 -1.046875 C 1.117188 -1.097656 1.125 -1.132812 1.125 -1.15625 C 1.125 -1.238281 1.070312 -1.28125 0.96875 -1.28125 L 0.859375 -1.28125 L 0.859375 -1.296875 L 1.375 -1.296875 L 1.375 -1.28125 L 1.34375 -1.28125 C 1.289062 -1.28125 1.25 -1.265625 1.21875 -1.234375 C 1.1875 -1.210938 1.160156 -1.160156 1.140625 -1.078125 L 0.78125 0.015625 C 0.75 0.128906 0.710938 0.222656 0.671875 0.296875 C 0.640625 0.367188 0.597656 0.425781 0.546875 0.46875 C 0.503906 0.507812 0.445312 0.535156 0.375 0.546875 C 0.3125 0.566406 0.222656 0.578125 0.109375 0.578125 Z M 0.09375 0.578125 "/></g></g><g style="fill:#000000;fill-opacity:1;"><g transform="translate(109.44124, 42.281544)"><path style="stroke:none" d="M 0.6875 0.03125 C 0.519531 0.03125 0.382812 -0.0234375 0.28125 -0.140625 C 0.1875 -0.253906 0.140625 -0.425781 0.140625 -0.65625 C 0.140625 -0.875 0.1875 -1.039062 0.28125 -1.15625 C 0.375 -1.269531 0.515625 -1.328125 0.703125 -1.328125 C 0.878906 -1.328125 1.015625 -1.269531 1.109375 -1.15625 C 1.210938 -1.039062 1.265625 -0.875 1.265625 -0.65625 C 1.265625 -0.425781 1.210938 -0.253906 1.109375 -0.140625 C 1.015625 -0.0234375 0.875 0.03125 0.6875 0.03125 Z M 0.703125 0 C 0.816406 0 0.898438 -0.046875 0.953125 -0.140625 C 1.003906 -0.242188 1.03125 -0.414062 1.03125 -0.65625 C 1.03125 -0.882812 1.003906 -1.046875 0.953125 -1.140625 C 0.898438 -1.242188 0.816406 -1.296875 0.703125 -1.296875 C 0.578125 -1.296875 0.488281 -1.242188 0.4375 -1.140625 C 0.394531 -1.046875 0.375 -0.882812 0.375 -0.65625 C 0.375 -0.414062 0.394531 -0.242188 0.4375 -0.140625 C 0.488281 -0.046875 0.578125 0 0.703125 0 Z M 0.703125 0 "/></g></g><g style="fill:#000000;fill-opacity:1;"><g transform="translate(110.841829, 42.281544)"><path style="stroke:none" d="M 0.6875 0.03125 C 0.539062 0.03125 0.429688 -0.00390625 0.359375 -0.078125 C 0.296875 -0.160156 0.265625 -0.285156 0.265625 -0.453125 L 0.265625 -1.0625 C 0.265625 -1.132812 0.25 -1.1875 0.21875 -1.21875 C 0.1875 -1.257812 0.132812 -1.28125 0.0625 -1.28125 L 0.0625 -1.296875 L 0.484375 -1.296875 L 0.484375 -0.4375 C 0.484375 -0.28125 0.5 -0.171875 0.53125 -0.109375 C 0.570312 -0.046875 0.632812 -0.015625 0.71875 -0.015625 C 0.832031 -0.015625 0.914062 -0.0546875 0.96875 -0.140625 C 1.019531 -0.222656 1.046875 -0.34375 1.046875 -0.5 L 1.046875 -1.0625 C 1.046875 -1.132812 1.03125 -1.1875 1 -1.21875 C 0.976562 -1.257812 0.925781 -1.28125 0.84375 -1.28125 L 0.84375 -1.296875 L 1.28125 -1.296875 L 1.28125 -0.234375 C 1.28125 -0.148438 1.289062 -0.09375 1.3125 -0.0625 C 1.34375 -0.0390625 1.394531 -0.03125 1.46875 -0.03125 L 1.484375 -0.03125 L 1.484375 0 L 1.0625 0 L 1.0625 -0.328125 C 1.050781 -0.242188 1.03125 -0.175781 1 -0.125 C 0.96875 -0.0820312 0.929688 -0.0507812 0.890625 -0.03125 C 0.859375 -0.0078125 0.820312 0.00390625 0.78125 0.015625 C 0.75 0.0234375 0.71875 0.03125 0.6875 0.03125 Z M 0.6875 0.03125 "/></g></g><g style="fill:#000000;fill-opacity:1;"><g transform="translate(112.383206, 42.281544)"><path style="stroke:none" d="M 0.0625 0 L 0.0625 -0.03125 L 0.09375 -0.03125 C 0.15625 -0.03125 0.203125 -0.0390625 0.234375 -0.0625 C 0.265625 -0.09375 0.28125 -0.140625 0.28125 -0.203125 L 0.28125 -1.078125 C 0.28125 -1.148438 0.265625 -1.203125 0.234375 -1.234375 C 0.203125 -1.265625 0.15625 -1.28125 0.09375 -1.28125 L 0.078125 -1.28125 L 0.078125 -1.296875 L 0.515625 -1.296875 L 0.515625 -1.0625 C 0.523438 -1.101562 0.539062 -1.140625 0.5625 -1.171875 C 0.582031 -1.210938 0.613281 -1.25 0.65625 -1.28125 C 0.707031 -1.3125 0.773438 -1.328125 0.859375 -1.328125 C 0.929688 -1.328125 0.988281 -1.3125 1.03125 -1.28125 C 1.082031 -1.25 1.109375 -1.203125 1.109375 -1.140625 C 1.109375 -1.097656 1.085938 -1.054688 1.046875 -1.015625 C 1.015625 -0.984375 0.957031 -0.96875 0.875 -0.96875 C 0.875 -1.070312 0.859375 -1.140625 0.828125 -1.171875 C 0.796875 -1.210938 0.757812 -1.234375 0.71875 -1.234375 C 0.664062 -1.234375 0.625 -1.21875 0.59375 -1.1875 C 0.570312 -1.15625 0.550781 -1.113281 0.53125 -1.0625 C 0.519531 -1.007812 0.515625 -0.953125 0.515625 -0.890625 C 0.515625 -0.835938 0.515625 -0.789062 0.515625 -0.75 L 0.515625 -0.21875 C 0.515625 -0.144531 0.53125 -0.09375 0.5625 -0.0625 C 0.59375 -0.0390625 0.644531 -0.03125 0.71875 -0.03125 L 0.75 -0.03125 L 0.75 0 Z M 0.0625 0 "/></g></g><g style="fill:#000000;fill-opacity:1;"><g transform="translate(113.526493, 42.281544)"><path style="stroke:none" d=""/></g></g><g style="fill:#000000;fill-opacity:1;"><g transform="translate(114.072649, 42.281544)"><path style="stroke:none" d="M 0.5 0 L 0.171875 -1.140625 C 0.160156 -1.191406 0.140625 -1.226562 0.109375 -1.25 C 0.0859375 -1.269531 0.0625 -1.28125 0.03125 -1.28125 L 0 -1.28125 L 0 -1.296875 L 0.59375 -1.296875 L 0.59375 -1.28125 L 0.546875 -1.28125 C 0.492188 -1.28125 0.457031 -1.269531 0.4375 -1.25 C 0.414062 -1.238281 0.40625 -1.21875 0.40625 -1.1875 C 0.40625 -1.15625 0.410156 -1.113281 0.421875 -1.0625 L 0.59375 -0.46875 C 0.601562 -0.40625 0.613281 -0.34375 0.625 -0.28125 C 0.644531 -0.226562 0.664062 -0.171875 0.6875 -0.109375 C 0.707031 -0.171875 0.722656 -0.226562 0.734375 -0.28125 C 0.753906 -0.34375 0.769531 -0.40625 0.78125 -0.46875 L 1 -1.296875 L 1.15625 -1.296875 L 1.421875 -0.46875 C 1.441406 -0.394531 1.460938 -0.328125 1.484375 -0.265625 C 1.503906 -0.210938 1.523438 -0.148438 1.546875 -0.078125 L 1.5625 -0.078125 C 1.570312 -0.140625 1.582031 -0.203125 1.59375 -0.265625 C 1.613281 -0.328125 1.632812 -0.390625 1.65625 -0.453125 L 1.796875 -1.046875 C 1.804688 -1.078125 1.8125 -1.101562 1.8125 -1.125 C 1.820312 -1.144531 1.828125 -1.160156 1.828125 -1.171875 C 1.828125 -1.210938 1.8125 -1.238281 1.78125 -1.25 C 1.757812 -1.269531 1.71875 -1.28125 1.65625 -1.28125 L 1.5625 -1.28125 L 1.5625 -1.296875 L 2.078125 -1.296875 L 2.078125 -1.28125 L 2.015625 -1.28125 C 1.972656 -1.28125 1.9375 -1.265625 1.90625 -1.234375 C 1.875 -1.203125 1.851562 -1.148438 1.84375 -1.078125 L 1.5625 0 L 1.375 0 L 0.984375 -1.15625 L 0.6875 0 Z M 0.5 0 "/></g></g><g style="fill:#000000;fill-opacity:1;"><g transform="translate(116.165042, 42.281544)"><path style="stroke:none" d="M 0.515625 0.03125 C 0.390625 0.03125 0.289062 0 0.21875 -0.0625 C 0.15625 -0.132812 0.125 -0.222656 0.125 -0.328125 C 0.125 -0.453125 0.164062 -0.546875 0.25 -0.609375 C 0.34375 -0.671875 0.484375 -0.707031 0.671875 -0.71875 L 0.875 -0.71875 L 0.875 -0.90625 C 0.875 -0.988281 0.867188 -1.0625 0.859375 -1.125 C 0.847656 -1.1875 0.828125 -1.226562 0.796875 -1.25 C 0.765625 -1.28125 0.71875 -1.296875 0.65625 -1.296875 C 0.5625 -1.296875 0.5 -1.265625 0.46875 -1.203125 C 0.4375 -1.148438 0.421875 -1.0625 0.421875 -0.9375 C 0.359375 -0.9375 0.304688 -0.945312 0.265625 -0.96875 C 0.234375 -0.988281 0.21875 -1.023438 0.21875 -1.078125 C 0.21875 -1.140625 0.238281 -1.1875 0.28125 -1.21875 C 0.320312 -1.257812 0.375 -1.285156 0.4375 -1.296875 C 0.5 -1.316406 0.570312 -1.328125 0.65625 -1.328125 C 0.800781 -1.328125 0.910156 -1.296875 0.984375 -1.234375 C 1.066406 -1.171875 1.109375 -1.0625 1.109375 -0.90625 L 1.109375 -0.171875 C 1.109375 -0.117188 1.117188 -0.0820312 1.140625 -0.0625 C 1.160156 -0.0390625 1.195312 -0.03125 1.25 -0.03125 L 1.265625 -0.03125 L 1.265625 0 L 0.890625 0 L 0.890625 -0.25 C 0.859375 -0.15625 0.8125 -0.0820312 0.75 -0.03125 C 0.6875 0.0078125 0.609375 0.03125 0.515625 0.03125 Z M 0.5625 -0.015625 C 0.625 -0.015625 0.675781 -0.03125 0.71875 -0.0625 C 0.769531 -0.09375 0.804688 -0.128906 0.828125 -0.171875 C 0.859375 -0.222656 0.875 -0.28125 0.875 -0.34375 L 0.875 -0.6875 L 0.71875 -0.6875 C 0.582031 -0.675781 0.488281 -0.644531 0.4375 -0.59375 C 0.382812 -0.539062 0.359375 -0.445312 0.359375 -0.3125 C 0.359375 -0.113281 0.425781 -0.015625 0.5625 -0.015625 Z M 0.5625 -0.015625 "/></g></g><g style="fill:#000000;fill-opacity:1;"><g transform="translate(117.483089, 42.281544)"><path style="stroke:none" d="M 0.09375 0.578125 L 0.09375 0.5625 C 0.207031 0.5625 0.296875 0.550781 0.359375 0.53125 C 0.429688 0.507812 0.488281 0.476562 0.53125 0.4375 C 0.570312 0.40625 0.609375 0.359375 0.640625 0.296875 C 0.671875 0.242188 0.695312 0.179688 0.71875 0.109375 L 0.203125 -1.140625 C 0.179688 -1.191406 0.160156 -1.226562 0.140625 -1.25 C 0.117188 -1.269531 0.09375 -1.28125 0.0625 -1.28125 L 0.015625 -1.28125 L 0.015625 -1.296875 L 0.59375 -1.296875 L 0.59375 -1.28125 L 0.578125 -1.28125 C 0.535156 -1.28125 0.5 -1.269531 0.46875 -1.25 C 0.445312 -1.238281 0.4375 -1.210938 0.4375 -1.171875 C 0.4375 -1.148438 0.445312 -1.113281 0.46875 -1.0625 L 0.671875 -0.5625 C 0.691406 -0.5 0.71875 -0.429688 0.75 -0.359375 C 0.78125 -0.285156 0.800781 -0.222656 0.8125 -0.171875 C 0.832031 -0.234375 0.851562 -0.289062 0.875 -0.34375 C 0.894531 -0.40625 0.910156 -0.457031 0.921875 -0.5 L 1.109375 -1.046875 C 1.117188 -1.097656 1.125 -1.132812 1.125 -1.15625 C 1.125 -1.238281 1.070312 -1.28125 0.96875 -1.28125 L 0.859375 -1.28125 L 0.859375 -1.296875 L 1.375 -1.296875 L 1.375 -1.28125 L 1.34375 -1.28125 C 1.289062 -1.28125 1.25 -1.265625 1.21875 -1.234375 C 1.1875 -1.210938 1.160156 -1.160156 1.140625 -1.078125 L 0.78125 0.015625 C 0.75 0.128906 0.710938 0.222656 0.671875 0.296875 C 0.640625 0.367188 0.597656 0.425781 0.546875 0.46875 C 0.503906 0.507812 0.445312 0.535156 0.375 0.546875 C 0.3125 0.566406 0.222656 0.578125 0.109375 0.578125 Z M 0.09375 0.578125 "/></g></g></g></svg>